# xmcd CD database file generated by Grip 2.98.5
# 
# Track frame offsets:
#       150
#       16112
#       31250
#       54170
#       72785
#       85370
#       104332
#       119082
#       133535
#       147170
#       161922
#       173507
# 
# Disc length: 2437 secs
# 
# Revision: 2
# Processed by: cddbd v1.4PL0 Copyright (c) Steve Scherf et al.
# Submitted via: Grip 2.98.5
# 
DISCID=9a09830c
DTITLE=A.J. Croce - A.J. Croce
DYEAR=1993
DGENRE=Jazz
TTITLE0=He's Got A Way With Women
TTITLE1=Which Way Steinway
TTITLE2=I Wonder
TTITLE3=How'd We Get So Good At Saying Good-bye
TTITLE4=I Found Faith
TTITLE5=Keep On Lookin'
TTITLE6=She Wouldn't Give Me None
TTITLE7=I Know Better now
TTITLE8=Back Where I Began
TTITLE9=Smokin' Good Time
TTITLE10=Stuff You Gotta Watch
TTITLE11=If I Could Be With You
EXTD=
EXTT0=
EXTT1=
EXTT2=
EXTT3=
EXTT4=
EXTT5=
EXTT6=
EXTT7=
EXTT8=
EXTT9=
EXTT10=
EXTT11=
PLAYORDER=
